<?xml version="1.0" encoding="UTF-8"?>
<svg id="Layer_1" data-name="Layer 1" xmlns="http://www.w3.org/2000/svg" viewBox="0 0 326 497">
  <defs>
    <style>
      .cls-1 {
        stroke-width: 0px;
      }
    </style>
  </defs>
  <path class="cls-1" d="m132.35,42.93c-5.87,3.17-5.28,9.01-7.11,13.65-8.54,21.67-9.6,44.28-8.02,67.15.42,6.02-.38,11.98-.77,17.9-.79,11.77-.23,23.64-1.81,35.29-2.13,15.7-.92,31.54-2.96,47.22-.49,3.75-.14,7.64.07,11.45.52,9.77-.5,19.59-3.94,28.5-2.59,6.7-6.37,13.32-14.83,16.27-8.22,2.86-14.59,8.76-16.08,18.6-1.79,11.81-3.72,23.61-5.51,35.39-1.31,8.63-8.49,21.03-5.38,32.66,8,30,35.06,72.97,33,73-3.13.04-46.21-63.44-41.4-83.11,4.65-19.07,4.94-38.41,7.86-57.53,2.02-13.21,8.1-23.56,21.23-28.56,8.05-3.07,12.28-9.05,12.74-17.45,1.02-18.63,1.63-37.28,2.66-55.91.83-14.96,1.95-29.9,3.09-44.84,1.29-16.95.99-33.93,1.01-50.9.03-23.17,6.19-44.73,17.17-64.92,4.24-7.8,10.35-14.26,17.88-19.2,6.03-3.95,12.17-1.74,15.82,4.67,6.55,11.49,6.41,22.95,2.95,35.44-2.37,8.54-3.99,17.53-4.22,26.55-.15,6.05-3.15,11.42-3.6,17.51-1.03,13.92-2.75,27.8-4.44,41.66-.47,3.84-.18,7.66-.54,11.46-.64,6.75-.3,13.52-2.44,20.23-2.11,6.63-1.62,13.81-1.56,20.79.01,1.3-.11,3.49,1.84,3.49,1.48,0,1.45-1.95,1.81-3.2,3.33-11.59,8.07-22.51,15.44-32.17.7-.92,1.46-1.85,2.34-2.59,3.18-2.68,6.42-6.16,11-3.99,5,2.37,7.67,6.89,7.9,12.42.46,11.14-.16,22.33,1.41,33.42,1.15,8.17,2.58,16.28,4.76,24.82,2.36-2.03,2.67-4.49,3.26-6.52,2.34-8.02,8.14-11.47,15.77-12.52,7.63-1.05,11.85,3.99,15.82,9.34,4.72,6.36,6.99,13.93,10.52,20.87,3.18,6.25,4.93,13.01,7.81,19.35,1.74,3.83,3.13,3.68,5.54.8,1.49-1.77,3.23-3.34,4.93-4.92,12.02-11.21,30.56-4.62,36.38,7.87,7.11,15.26,6.7,30.59,5.03,46.63-1.3,12.55-6.61,23.5-12.8,33.63-6.72,10.99-12.2,22.78-20.55,32.89-4.42,5.35-7.27,12.12-11.36,17.94-11.15,15.85-23.18,31.02-36.14,45.39-9.34,10.35-17.65,21.64-29.02,30.23-8.51,6.43-29.87,8.92-39.89,6.92s-34.36-23.06-39.02-27.3c-2.61-2.37-4.98-5.22-7.24-7.82-2.97-3.41-30.04-45.47-29.75-50.88,4.12,4.84,29.19,34.57,33,40,5.19,7.41,40.28,40.87,47,41,4.24.08,21.47,1.36,25-1,14-5,22-16.57,29.79-26.47,7.3-9.27,15.2-18.07,22.84-27.07,9.08-10.69,16.41-22.61,24.07-34.3,10.68-16.3,21.58-32.54,29.75-50.25,8.9-19.3,10.09-39.64,3.5-59.9-2.79-8.57-9.75-13.48-18.95-14.71-2.93-.39-5.02.94-7.2,2.67-4.41,3.5-9.43,6.32-9.02,13.27.14,2.38-2.16,4.54-4.41,4.76-2.39.23-3.93-2.04-5.13-4.16-5.09-9.03-8.2-18.92-12.35-28.36-3.14-7.15-5.73-14.58-10.55-20.86-2.21-2.89-4.45-6.51-8.72-5.49-4.14.98-7.17,2.96-9.09,7.91-3.9,10.05-5.7,20.03-4.39,30.66.21,1.69-.2,3.34-1.07,4.81-1.79,3-4.35,3.04-6.08-.05-1.63-2.9-3.02-5.95-3.42-9.33-2.5-21.17-7.05-42.07-8.5-63.37-.34-4.98-.19-10-.49-14.98-.13-2.09-.22-4.57-2.63-5.55-2.46-1-3.72,1.27-4.88,2.64-5.11,6.04-8.62,12.95-9.96,20.81-.34,1.97-.66,3.9-1.29,5.82-4.9,15-6.86,30.57-8.87,46.12-.43,3.36.31,6.64,1.13,9.88.95,3.78-.05,7.08-3.95,7.86-4.24.84-5.45-2.37-6.12-6.09-3.96-21.78-5.26-43.77-2.45-65.65,3.1-24.12,3.71-48.45,6.94-72.53,1.59-11.88,2.99-23.78,4.39-35.69.16-1.38.94-3.33-.66-4.1-1.78-.86-2.49,1.25-3.41,2.26-2.8,3.1-5.79,5.95-9.07,8.55-2.28,1.81-4.47,2.87-7.29,1.48-2.74-1.35-3.73-3.84-3.74-6.59-.01-2.64.21-5.35.86-7.9,2.23-8.84,3.39-17.96,7.28-26.37.88-1.91.96-4.19,1.5-6.77Zm19.57,1.39c0-.81,0-2.14,0-3.47,0-2.8-.29-5.6-3.66-6.2-3.7-.67-3.61,2.75-4.41,4.85-2.58,6.68-6.09,12.9-9.5,19.15-3.34,6.11-4.33,12.75-5.04,19.45-.26,2.44,1.57,3.66,3.46,1.72,9.6-9.86,20.11-19.31,19.16-35.5Z"/>
  <path class="cls-1" d="m119.98,281.86c5.44.13,9.46,1.56,12.66,4.77,3.93,3.94,4.14,7.02,1.15,11.57-1.32,2-2.49,2.54-4.08.2-5.95-8.75-12.56-9.47-20.4-2.27-3.43,3.15-6.62,6.53-9.57,10.15-1.53,1.88-3.59,4.47-6.16,2.74-3.09-2.08-.79-4.88.61-6.98,5.01-7.51,10.39-14.69,18.99-18.56,2.47-1.11,5.02-1.76,6.81-1.62Z"/>
  <path class="cls-1" d="m185.02,286.62c.42,3.52-2.13,5.04-4.18,5.82-2.62,1-2.27-2.12-2.86-3.54-2.62-6.25-9.5-7.84-15.23-3.33-1.95,1.54-3.69,3.33-5.55,4.98-.75.67-1.57,1.38-2.64.81-1.23-.65-1.27-1.84-1.09-3.04,1.48-9.46,16.88-17.18,25.25-12.65,4.48,2.42,5.42,6.84,6.3,10.94Z"/>
  <path class="cls-1" d="m237.07,285.37c.04,2.92-2.18,3.49-4.26,4.08-2.34.66-2.68-1.08-3.19-2.75-1.75-5.73-6.01-7.45-11.35-4.43-2.87,1.62-5.65,3.45-7.43,6.45-.64,1.08-1.88,2.41-3.26,1.49-1.56-1.05-.27-2.36.44-3.41,4.12-6.08,9.46-10.76,16.58-12.79,6.83-1.95,9.44-.18,11.15,6.61.41,1.61.88,3.19,1.32,4.75Z"/>
  <path class="cls-1" d="m274.36,290.44c.13,3.02.07,5.97-1.61,8.66-.77,1.23-1.69,2.03-3.21,1.86-1.61-.18-2.28-1.37-2.41-2.74-.45-4.82-1.8-9.43-2.96-14.09-.73-2.93.74-4.88,3.51-5.63,2.71-.73,4.41.8,5.46,3.16,1.24,2.81,1.02,5.84,1.22,8.79Z"/>
</svg>