<svg xmlns="http://www.w3.org/2000/svg" version="1.1" xmlns:xlink="http://www.w3.org/1999/xlink" xmlns:svgjs="http://svgjs.com/svgjs" width="32" height="32"><svg id="SvgjsSvg1000" data-name="Layer 1" xmlns="http://www.w3.org/2000/svg" viewBox="0 0 32 32">
  <defs>
    <style>
      .cls-1, .cls-2 {
        stroke-width: 0px;
      }

      .cls-2 {
        fill: #ffbc00;
      }
    </style>
  </defs>
  <rect class="cls-2" x="0" width="32" height="32"></rect>
  <path class="cls-1" d="m23.91,27.43c.1-.03.16.04.23.08.11.05.15.04.17-.08.02-.09.03-.18.02-.27-.02-.26.04-.51.04-.76s.07-.49.1-.74c.02-.17.05-.34.06-.52,0-.12.05-.24.06-.37.04-.29.08-.58.11-.86.03-.27.05-.55.09-.82.03-.24.02-.48.05-.71.03-.24.05-.48.1-.72.07-.32.11-.64.24-.94.1-.23.15-.47.26-.7.1-.21.19-.43.3-.63.12-.22.22-.46.32-.69.09-.2-.01-.35-.11-.49-.06-.08-.16-.08-.25-.03-.04.03-.08.06-.11.1-.21.21-.42.42-.61.65-.08.1-.19.18-.25.31-.03.08-.12.11-.21.11h-.34c-.12,0-.21-.11-.22-.23,0-.11.02-.22.08-.31.11-.17.2-.35.34-.49s.23-.3.21-.5c0-.09.03-.1.1-.11.06,0,.12-.02.17-.04.08-.02.15-.06.15-.15,0-.08-.06-.14-.13-.18-.23-.13-.45-.28-.65-.45-.13-.12-.17-.29-.22-.45-.04-.16-.04-.15-.21-.19-.08-.02-.17-.04-.24-.1-.03-.02-.06-.05-.1-.06-.12-.03-.19-.13-.26-.22-.09-.11-.21-.2-.31-.3-.18-.16-.37-.31-.56-.47-.11-.09-.21-.18-.33-.25-.05-.03-.09-.04-.14,0-.04.03-.09.04-.13.07-.16.16-.33.33-.49.5-.11.11-.2.23-.28.37,0,0-.01.02-.02.02-.02,0-.03-.02-.04-.02-.08-.02-.18.04-.21-.09-.04-.15-.13-.29-.11-.45,0-.07-.03-.14-.08-.19-.04-.05-.03-.09,0-.15.1-.24.22-.46.39-.65.02-.03.04-.06.06-.1.05-.12.02-.18-.11-.22-.11-.04-.23-.05-.33-.13-.02-.01-.04-.02-.05-.03-.13-.13-.28-.12-.44-.09-.12.02-.24.05-.34.14-.04.04-.1.07-.11.14-.02.08-.07.09-.13.06-.09-.05-.15-.02-.21.05-.02.03-.06.06-.09.07-.2.06-.36.18-.53.28-.12.07-.23.15-.34.25-.14.13-.29.22-.49.25-.16.02-.33.08-.44.22-.05.06-.11.07-.17.09-.19.07-.38.12-.55.23-.11.07-.24.08-.37.13-.22.09-.42.22-.63.33-.11.06-.23.12-.33.2-.18.13-.4.21-.54.4-.06.09-.18.12-.24.21-.16.21-.4.35-.55.57-.14.06-.22.22-.37.28-.08.03-.15.11-.19.19s-.1.14-.17.19c-.06.04-.1.09-.13.16-.04.09-.13.13-.2.19-.04.03-.09.06-.12.11-.1.13-.22.23-.35.33-.06.04-.14.09-.11.18.03.08.12.08.2.07.13,0,.26-.03.38-.07.08-.03.16-.02.24-.03.13,0,.21.07.28.16.1.14.22.25.35.35s.24.23.35.36c0,0,.02.02.02.03,0,.14.06.22.19.26.02,0,.03.03.04.05.01.11.08.2.12.3.05.09.05.19.07.28,0,.03,0,.05-.02.07-.09.09-.17.21-.32.23-.09.01-.16.08-.24.13-.16.1-.35.13-.52.22-.06.03-.13,0-.2.02-.18.04-.35.15-.54.13-.27.11-.56.12-.82.25-.12.06-.23.13-.36.18-.09.04-.18.07-.28.08-.34.04-.68.1-1.03.12-.2.02-.42.03-.61-.02-.17-.04-.33-.11-.5-.16-.24-.07-.46-.19-.68-.3-.1-.05-.2-.07-.28-.15-.06-.06-.1-.12-.13-.2-.04-.11-.08-.22-.13-.33-.04-.1-.09-.14-.2-.13-.3.05-.61.05-.92.08-.17.02-.34.08-.49.15-.07.03-.13.05-.21.04-.07,0-.13,0-.19.02-.08.03-.16.02-.24,0-.09-.03-.19-.07-.28.02-.04.03-.08,0-.12,0-.07,0-.14-.03-.19.05-.02.03-.06.04-.1.05-.27.03-.53.1-.8.02-.17.03-.35-.02-.53.03-.19.05-.38.1-.57.12-.16.02-.31.09-.47.13-.17.04-.23.2-.35.3-.18.14-.14.34-.14.52,0,.25,0,.5-.06.74-.03.14,0,.28-.07.42-.02.06-.04.11-.08.16-.02.02-.05.05-.05.08,0,.1-.04.15-.15.15-.06,0-.08.05-.09.1,0,.05,0,.1.02.14.1.19.2.39.32.57.1.15.24.26.33.42.06.12.21.16.33.19.18.04.34.12.46.26.11.12.25.14.39.16.2.03.41,0,.61,0,.22,0,.43-.01.65-.02.06,0,.12,0,.18-.02s.12-.04.19,0h.03c.19-.08.39-.02.58-.07.05-.01.1-.03.14-.02.18.02.34-.03.51-.07.16-.03.33-.03.49-.09.07-.03.15-.02.22-.03.16-.01.2-.04.22-.2.01-.08.02-.15-.02-.23-.05-.1,0-.21.12-.29.12-.08.23-.16.36-.22.13-.07.22-.17.35-.24.05-.02.05-.07.04-.11-.02-.09.02-.14.09-.18.29-.17.57-.35.84-.54.22-.15.48-.24.68-.4.16-.12.28-.08.43-.01.18.08.35.17.54.22.05.02.08.04.09.1.07.28.19.53.35.76.15.22.22.47.25.73.02.13.01.13.14.14.04,0,.08,0,.11.02.09.07.2.08.31.09.08,0,.15.07.2.13.09.09.18.19.32.2.02,0,.04.01.05.04.02.11.11.19.14.29.01.05.04.08.08.09.14.05.29.1.44.08s.3-.03.44.07c.02.02.05.02.08.02.18,0,.34.05.49.14.11.06.23.09.34.15.24.13.47.28.68.47.14.13.24.29.4.4.05.04.08.1.12.15.15.2.33.37.48.57.06.08.11.17.16.26.11.22.19.45.25.68.05.21.13.41.2.61.04.11.05.23.1.34.03.06.06.1.12.07.06-.03.09,0,.13.04.09.1.19.16.33.18.09,0,.18.06.27.1.31.15.64.27.93.45.33.19.67.38.91.69.09.11.15.23.19.36.04.12.08.24.22.28.06.02.06.06.03.1-.04.07-.12.13-.16.21-.01.03-.05.02-.07.02h-.13c-.45-.02-.9,0-1.35.04-.37.03-.75.03-1.12.04-.16,0-.19-.02-.23-.17-.02-.07-.05-.13-.08-.19-.09-.18-.17-.37-.22-.57-.04-.13-.11-.26-.17-.39-.13-.29-.2-.6-.27-.92-.07-.31-.13-.61-.17-.92-.01-.1-.04-.19-.07-.28-.05-.16-.08-.32-.11-.49-.02-.16-.09-.31-.2-.44-.17-.19-.31-.39-.51-.55s-.4-.32-.58-.49c-.14-.14-.31-.23-.47-.34-.03-.02-.06-.04-.09-.03-.1.03-.16-.02-.22-.09-.02-.02-.04-.04-.06-.04-.12,0-.21-.09-.32-.11s-.2-.07-.31-.1c-.14-.05-.28-.05-.42.08-.16.15-.36.27-.59.32h-.11c-.14-.02-.27,0-.4.05-.19.08-.39.13-.56.24-.19.13-.43.16-.59.34-.02.02-.05.03-.07.04-.18.05-.32.18-.48.26-.04.02-.06.06-.09.09-.01.02-.02.04-.04.05-.24.12-.37.38-.62.49-.09.04-.17.11-.24.18-.08.08-.17.15-.28.19-.12.05-.23.14-.36.17-.26.05-.5.15-.76.23-.32.09-.64.19-.96.28-.19.05-.39.11-.59.12-.11,0-.22.03-.32.09-.13.08-.29.08-.43.12-.26.07-.49.19-.72.33-.2.12-.37.28-.55.43,0,0-.03.02-.04.03-.1.18-.27.17-.43.18-.08,0-.11-.03-.13-.09-.02-.08-.03-.16-.06-.23-.02-.03,0-.08,0-.11.06-.1.07-.2.11-.31.03-.09.05-.17,0-.25-.02-.04,0-.07.02-.1.22-.3.38-.63.59-.93.1-.14.18-.3.3-.42.04-.05.08-.11.1-.17.03-.11-.01-.17-.13-.15-.14.02-.27.06-.41.08-.22.04-.42.04-.63-.06-.24-.12-.38-.31-.47-.55-.12-.31-.22-.63-.36-.94-.1-.2-.18-.41-.3-.59-.04-.07-.1-.12-.17-.17-.13-.08-.2-.21-.29-.33-.24-.31-.44-.65-.57-1.03-.11-.31-.13-.64-.13-.96,0-.19,0-.38.06-.56.04-.14,0-.19-.14-.24-.07-.03-.15-.05-.22-.09-.16-.1-.2-.26-.25-.42-.03-.09-.06-.19-.09-.28-.1-.27-.09-.55-.06-.83.03-.21.17-.36.32-.5.1-.09.2-.19.31-.25.13-.08.3-.19.47-.07.02.02.05.02.07.04.16.12.35.14.55.17.16.02.3.11.42.24.05.05.1.09.15.12.03.02.07.03.11.02.21-.09.44-.11.66-.18.15-.05.31-.05.46-.07.2-.03.41,0,.61-.05h.03c.28.1.55-.08.82-.01.11-.06.24-.03.36-.08.13-.05.28-.03.41-.07.19-.05.4-.05.59-.08.24-.03.46-.09.7-.12.22-.03.43-.09.65-.1.23-.02.45-.04.67-.08.2-.04.41-.04.6-.11.01,0,.03-.01.05-.01.32-.01.62-.12.92-.22.07-.02.12-.07.18-.1.07-.04.12-.1.2-.1.07,0,.09-.08.14-.11.21-.11.39-.26.58-.41.13-.1.24-.21.37-.31.2-.16.37-.37.59-.5.08-.05.12-.13.19-.18.31-.25.6-.53.87-.82.15-.16.31-.3.48-.43.21-.17.41-.37.62-.54.24-.19.49-.39.76-.56.19-.12.4-.21.59-.32.03-.02.06-.03.09-.04.23-.05.44-.15.65-.25.08-.04.16-.07.25-.07.34-.02.65-.14.91-.36.03-.02.06-.06.1-.06.12,0,.22-.07.31-.13.24-.15.5-.29.73-.45.07-.05.15-.08.23-.12.09-.05.12-.1.09-.2-.05-.17-.02-.33.06-.49.13-.27.26-.53.36-.82.04-.13.08-.26.1-.39.03-.18.12-.35.2-.51.06-.11.11-.22.16-.34.08-.18.19-.35.36-.47.03-.02.06-.04.09-.07.1-.17.28-.25.42-.37.05-.04.09-.08.13-.12.23-.18.49-.31.74-.47.34-.22.72-.37,1.09-.54.18-.08.38-.14.57-.2.11-.03.21-.09.32-.12.28-.07.55-.18.82-.28.05-.02.11-.04.12-.1.02-.08.06-.08.13-.06.13.02.26.07.38.12.11.05.14.18.17.3.01.05-.03.08-.07.1-.11.07-.22.13-.33.21-.16.13-.29.27-.39.45-.02.03-.04.07-.06.09-.23.27-.31.6-.42.93-.07.23-.09.47-.19.68-.05.11-.07.24-.16.33-.03.03-.04.08-.05.12-.05.19-.15.35-.29.48,0,0-.02.01-.02.02-.09.23-.31.32-.48.47-.03.03-.06.05-.08.08s-.02.07.01.09c.11.07.18.2.32.23.06.01.1.06.14.1.04.05.09.1.13.14.11.11.15.3.02.44-.05.05-.07.1-.08.17-.02.12-.07.19-.19.23-.13.04-.26.08-.39.1-.19.04-.32.16-.43.3-.03.04-.02.08.04.09.13.01.26-.01.38-.05.11-.04.22-.1.34-.12.01,0,.02,0,.03-.01.21-.17.46-.25.69-.38.16-.09.34-.17.5-.25.22-.12.46-.2.67-.32.09-.05.2-.09.3-.12.2-.05.39-.13.58-.21.12-.05.25-.07.37-.12.21-.08.41-.17.63-.21.14-.02.28-.06.42-.09.17-.03.34-.02.51-.07.11-.04.23,0,.34-.02.13-.02.25,0,.38-.04.07-.02.12.03.17.08.07.08.15.13.26.15.07,0,.13.06.18.11.11.12.22.24.29.39.08.17.03.34-.03.5-.05.14-.05.13.07.21.27.16.56.28.83.45.31.19.62.4.85.69.13.17.27.33.41.5.15.19.24.4.26.64.01.14.04.28.06.42.01.1-.05.18-.06.28s-.06.19-.13.27c-.14.16-.15.36-.12.55.01.1.05.2-.03.29v.02c-.02.07.01.16-.07.2-.09.05-.19.09-.29.08-.24,0-.47.02-.71-.03-.19-.04-.39-.04-.57-.11-.19-.08-.4-.12-.59-.23-.17-.11-.33-.23-.48-.36-.09-.08-.17-.09-.28-.04-.09.05-.19.08-.28.13s-.2-.03-.27.06c-.21.02-.41.03-.62-.02-.13-.03-.25-.06-.38-.09-.08-.02-.15-.02-.22.02-.18.09-.36.18-.51.31-.07.05-.08.1-.05.18.04.1.09.2.14.29.07.15.11.29.1.45v.31c0,.2-.11.36-.18.53-.04.11-.1.22-.15.32-.03.06-.04.12-.11.15-.02,0-.04.03-.04.05-.01.11-.09.18-.14.27-.07.16-.17.29-.26.44-.04.06-.07.12-.09.19-.14.41-.26.82-.35,1.25-.05.19-.08.39-.07.59.01.34,0,.68-.02,1.02-.02.24-.03.48-.04.73,0,.2-.04.39-.08.58-.05.21-.04.43-.08.64v.11c-.08.27-.04.55-.07.82-.02.27-.02.55-.06.82-.03.2-.03.4-.04.6-.02.24-.03.49,0,.73.02.26-.07.5-.12.75-.04.21-.13.4-.2.6-.1.29-.23.56-.27.86-.02.12-.04.24.02.35.06.14-.02.24-.08.35-.09.15-.18.3-.23.48-.04.15-.08.17-.2.16-.33-.02-.65,0-.98,0h-.15c-.2,0-.24-.05-.22-.25.01-.17.09-.32.16-.47.05-.13.11-.26.2-.37.08-.1.11-.22.14-.34.07-.29.15-.58.19-.87.05-.34.1-.69.27-1,.01-.02.02-.04.03-.06.18-.23.25-.51.34-.78.04-.12.1-.23.15-.34.05-.14.11-.28.08-.44h.11Zm7.5-11.32c0-.11,0-.22-.04-.32-.06-.24-.24-.4-.42-.54-.11-.09-.23-.16-.35-.24-.18-.11-.37-.19-.56-.3-.13-.08-.27-.13-.4-.22-.09-.06-.2-.1-.31-.09-.18.02-.37.02-.55.04-.13.01-.26.07-.39-.03-.01-.01-.04,0-.06,0-.06,0-.13,0-.19-.02-.11-.03-.19.06-.16.17.06.16.08.34.14.5.09.28.22.53.56.58.03,0,.08.03.09.06.08.16.22.28.26.47.03.16.07.32.1.48,0,.06.03.11.08.15.21.15.42.28.66.35.17.05.35.07.51.13.22.08.31.02.4-.2.06-.14.14-.26.28-.33.26-.13.35-.35.34-.63h0Zm-4.23-.98h.05c.13.02.17-.01.13-.13-.02-.08-.03-.16-.03-.24,0-.05,0-.1-.06-.11-.16-.03-.32-.07-.47-.06-.18.01-.34.1-.5.18-.06.03-.11.07-.17.09-.37.15-.71.35-1.04.58-.07.05-.12.12-.16.2-.08.15-.14.31-.27.42-.07.05-.12.11-.16.18-.06.09-.06.12.03.19.2.15.4.3.62.41.07.04.13.08.18.13.07.06.14.11.22.16.1.07.2.07.3,0,.16-.12.35-.2.51-.32.05-.03.1-.07.16-.08.08-.01.12-.06.17-.11.09-.1.11-.23.12-.36,0-.11.03-.21.06-.31.08-.28.27-.53.32-.83h-.01Zm-16.41,10.72c-.05-.06-.11-.06-.17-.02-.06.04-.13.06-.2.06s-.13.02-.19.05c-.17.08-.34.18-.52.27-.21.11-.41.23-.64.31-.1.03-.21,0-.31.03-.17.05-.34.13-.53.14-.14.01-.27.07-.4.13-.09.04-.16.11-.26.12-.08.01-.12.05-.17.11-.08.1-.16.21-.28.26-.16.06-.32.12-.48.15-.27.06-.48.24-.72.36-.1.15-.24.25-.38.35-.22.17-.38.38-.56.58-.04.05-.08.1-.04.16.04.07.1.05.16.04.15-.02.28-.09.42-.11.33-.04.64-.14.95-.23.29-.09.57-.22.86-.32.26-.09.46-.26.67-.4.22-.16.42-.35.63-.53.21-.19.46-.35.64-.57.01-.01.02-.03.04-.03.17-.06.29-.2.45-.28.15-.08.26-.23.46-.2,0,0,.03-.02.03-.03,0-.09.1-.11.15-.16.11-.09.25-.13.36-.22l.03-.02Zm-6.21.93c.08,0,.17,0,.26-.02.25-.05.3-.14.18-.37-.02-.03-.04-.08-.08-.08-.11,0-.21-.05-.32-.03-.11.02-.23.03-.34.02-.19-.01-.38.06-.57,0-.08-.02-.17.08-.14.15.03.08.02.17.06.25.06.14.06.15.21.11.03,0,.06-.02.08-.01.11.03.21,0,.31-.04.04-.02.07-.02.11,0,.07.02.15,0,.24,0v.02Zm2.11-.45s-.03-.02-.04-.03c-.12-.06-.24,0-.37-.02-.22-.02-.45.02-.67.05-.12.01-.14.05-.13.16.01.13.05.18.16.18h.31c.23.02.41-.09.58-.2.06-.04.12-.08.15-.15h.01Zm15.04-13.26c-.24,0-.41.13-.6.21-.1.04-.2.06-.3.12-.07.05-.08.09-.05.16.05.12.17.16.27.22.12.07.14.05.23-.05.08-.09.12-.2.2-.27.12-.11.18-.24.24-.39h0Zm.88-1.39s.09-.03.12-.06c.18-.16.42-.23.56-.43.24-.12.31-.38.46-.57.04-.05.04-.12-.01-.16-.05-.04-.1,0-.14.04-.01.02-.02.04-.04.05-.15.13-.25.31-.39.45-.05.05-.12.08-.17.13-.12.15-.26.27-.4.4-.03.03-.04.06-.05.1,0,.03.02.05.05.05h.01Zm-11.74,15.16s.04.01.05.01c.31-.15.65-.23.96-.39.03-.02.07-.02.11-.04.16-.06.3-.15.46-.27-.11,0-.19.02-.26.02-.13,0-.25.04-.35.1-.12.07-.24.15-.39.15-.02,0-.04.01-.06.03-.06.06-.14.09-.19.17-.07.1-.19.16-.32.22h0Zm13.35-17.51c0-.14-.06-.18-.17-.14-.07.02-.13.04-.2.07-.06.03-.11.07-.08.14.03.08.08.17.13.24s.14.08.18.02c.06-.11.11-.23.14-.33Zm-3.82,3.2c-.06,0-.08.05-.08.16,0,.08.03.09.09.09.07,0,.13-.05.13-.12,0-.06-.07-.14-.13-.14h-.01Zm2.79,2.2s-.15.07-.15.1c0,.05.07.11.13.1.06,0,.12-.08.11-.14,0-.05-.04-.07-.09-.07h0Zm-12.72,12.31c.06,0,.12,0,.15-.05,0-.01,0-.03-.02-.04-.06,0-.1.04-.13.09Zm.03-3.16s-.01-.04-.03-.04c-.01,0-.03.01-.03.02,0,.02.01.04.04.04.01,0,.02-.01.03-.02h-.01Zm10.33-8.18s0,.02.02.02h0s0-.03-.02-.03h0Z"></path>
  <path class="cls-1" d="m23.48,25.47c-.07-.05-.12-.09-.17-.14-.18-.2-.41-.35-.58-.57-.07-.1-.18-.15-.27-.23-.29-.24-.56-.51-.89-.69-.14-.08-.27-.18-.4-.28-.18-.14-.33-.31-.47-.49-.02-.03-.03-.06-.06-.08-.23-.25-.33-.54-.32-.87,0-.1.02-.2.06-.28.05-.12.09-.24.13-.37.1-.27.27-.5.48-.7.17-.17.36-.29.57-.4.19-.1.39-.16.58-.24.2-.08.42-.11.6-.24.11-.08.25-.11.35-.2.05-.04.1-.02.13.02.14.16.31.3.41.5.02.04.04.08.05.12.03.29.2.52.36.75.09.12.15.26.19.41.06.28.13.56.18.84.08.48.1.96.06,1.44-.01.17-.04.33-.04.5v.06c-.08.19-.1.4-.11.61,0,.09-.02.17-.1.23-.06.06-.05.16-.12.22-.02.02-.03.06-.06.08-.06.06-.17.06-.24,0l-.06-.06c-.12-.13-.15-.12-.24.05h-.02Zm-1.55-2.71s.03-.02.04-.03c0-.02,0-.03-.03-.03-.02,0-.04.01-.04.04,0,.01.02.02.03.03h0Z"></path>
  <path class="cls-1" d="m15.01,24.26c-.01-.2.05-.47.11-.75.01-.05.02-.09.09-.1.06,0,.09-.06.11-.11.09-.21.16-.43.27-.63.02-.04.01-.07,0-.11-.03-.06-.02-.13-.04-.19,0-.04,0-.06.04-.08.03-.02.06,0,.09.01.05.04.08.08.14.11.1.04.12.03.15-.07q.04-.11.16-.06c.09.04.17.09.28.06.03,0,.07,0,.09.02.1.08.23.1.35.14.16.05.3.16.44.24.27.15.5.36.72.57.03.03.05.07.07.11.02.06.06.12.1.17.13.15.15.31.08.5-.05.12-.09.25-.14.37-.08.18-.08.37-.11.56-.05.28-.09.57-.14.85-.04.18-.21.22-.36.26-.11.04-.24.03-.35-.01-.07-.02-.14-.03-.21-.02-.15.02-.3-.01-.46,0-.13,0-.26.03-.38.09-.16.07-.31.05-.45-.03-.03-.01-.06-.04-.07-.06-.16-.28-.32-.56-.43-.87-.1-.28-.15-.56-.15-.94v-.03Z"></path>
  <path class="cls-1" d="m20.51,30.26c-.18.04-.31-.05-.42-.2-.06-.08-.14-.14-.21-.2-.1-.09-.15-.2-.17-.32,0-.06-.03-.11-.05-.17-.03-.08-.05-.16-.06-.25,0-.13-.08-.24-.19-.31-.21-.13-.33-.34-.43-.54s-.2-.4-.24-.63c-.02-.15-.04-.3-.1-.44-.02-.04-.04-.08-.06-.11-.08-.09-.06-.16.04-.22,0,0,.02-.01.03-.01.1-.02.17-.14.27-.14.09,0,.19.07.29.08.23.02.46.12.69.09.25-.03.49.04.74.07.23.02.47.02.71.08.27.06.55.11.81.2.04.01.08.04.11.07.04.05.1.06.16.08.26.06.41.27.38.53,0,.1-.02.21-.08.3-.09.15-.19.3-.34.4-.39.26-.77.53-1.1.87-.05.05-.1.12-.13.18-.08.15-.16.3-.25.45-.07.13-.15.19-.29.17h-.1v-.03Z"></path>
  <path class="cls-1" d="m23.27,16.45c-.02.13.03.26.05.38.04.25,0,.47-.19.66,0,0-.01.02-.02.02-.23.3-.49.59-.67.93-.06.11-.15.21-.23.31-.09.12-.18.23-.28.33-.13.13-.24.3-.24.5,0,.1-.1.19-.05.3-.06.03-.11.06-.15.1-.02.02-.04-.02-.07-.03-.14-.04-.23-.16-.36-.21-.09-.03-.17-.05-.27-.05-.13,0-.26-.03-.39-.04-.03,0-.06-.01-.07-.03-.06-.09-.15-.12-.24-.16-.04-.02-.08-.04-.08-.09.02-.17-.04-.33-.02-.5.02-.12.03-.24.02-.37-.01-.12.07-.23.12-.33.17-.33.4-.62.68-.88.33-.3.68-.55,1.03-.81.07-.05.16-.09.23-.15.07-.05.11-.11.12-.2.02-.15.14-.23.29-.19.09.03.19.05.29.05.11,0,.21.08.31.14.02.01.04.04.06.05.13.05.14.15.13.27Z"></path>
  <path class="cls-1" d="m4.14,21.57c.12-.02.25.02.37.09.21.12.46.19.64.36.14.13.25.28.26.48,0,.09.03.17.04.26,0,.26-.14.46-.31.64-.2.21-.44.37-.7.49-.11.05-.22.09-.34.05-.05-.01-.1,0-.15,0-.45-.03-.81-.22-1.11-.56-.05-.06-.08-.12-.07-.19.03-.22-.07-.4-.15-.59-.08-.18-.06-.28.04-.38.24-.21.51-.39.81-.5.03-.01.06-.01.09-.02.09-.04.2-.03.29-.1.07-.05.18-.03.29-.03Z"></path>
  <path class="cls-1" d="m19.15,17.56c.04.16.14.28.16.45.02.2,0,.38-.11.55-.02.02-.04.04-.06.05-.11.07-.22.15-.34.18-.19.06-.38.12-.59.03-.26-.11-.47-.25-.65-.48-.15-.19-.28-.4-.41-.6-.1-.16-.15-.34-.18-.53-.03-.13-.02-.25-.04-.38-.02-.15.04-.3.06-.45.02-.12.08-.22.11-.34.02-.08.1-.1.17-.06.05.03.1.06.12.12.04.1.15.13.22.21.12.15.18.32.17.51,0,.19.04.37.06.55,0,.03.01.07.03.09.13.13.2.32.36.43.06.04.12.1.19.08.11-.04.24.03.33-.09.04-.06.11-.11.16-.17.06-.08.13-.14.25-.18v.03Z"></path>
</svg><style>@media (prefers-color-scheme: light) { :root { filter: none; } }
</style></svg>