<?xml version="1.0" encoding="UTF-8"?>
<svg id="Layer_2" data-name="Layer 2" xmlns="http://www.w3.org/2000/svg" viewBox="0 0 108.21 58.42">
  <defs>
    <style>
      .cls-1 {
        stroke-width: 0px;
      }

      .cls-1, .cls-2 {
        fill: #000;
      }

      .cls-3, .cls-2 {
        isolation: isolate;
      }

      .cls-2 {
        font-family: BethEllen2Regular, 'Beth Ellen 2';
        font-size: 25.88px;
      }
    </style>
  </defs>
  <g id="Layer_1-2" data-name="Layer 1">
    <g>
      <g class="cls-3">
        <text class="cls-2" transform="translate(15.9 37.15)"><tspan x="0" y="0">Home</tspan></text>
      </g>
      <path class="cls-1" d="M61.63,5.15l1.15-.18c-1.86.28-3.71.74-5.72,1.17-1.98.41-4.17.71-6.32.38,2.34.44,4.83.1,7.09-.34,2.28-.47,4.42-.87,6.61-1.11,4.34-.49,8.53-.56,11.89-.88.36.22,2.63.44,4.84.62,1.1.08,2.11.18,2.82.32.71.13,1.14.28,1.19.26,1.41.37,2.86,1.29,4.41,2.23-1.06-.65-2.08-1.3-3.07-1.76.99.46,2.01,1.11,3.07,1.76,1.21.75,2.43,1.5,3.66,2.26,1.2.76,2.54,1.55,3.61,2.32.53.4.97.82,1.26,1.3.3.49.52,1.11.72,1.8.39,1.44.87,2.96,1.41,4.4,1.07,2.91,2.35,5.73,3.43,8.61,1.07,2.87,1.95,5.84,2.18,8.84.12,1.65.16,4.07-.72,6.57-.84,2.5-2.67,5.1-5.24,6.35-2.52,1.28-5.74,1-8.58.7-2.84-.32-5.32-.79-7.08-1.15-1.02-.21-2.04-.43-3.07-.64q1.71.37,3.41.74c-2.16-.34-4.23-.71-6.24-1.07-1.99-.33-3.98-.8-6.16-.74.75.07.91.09,2.58.4-.68-.12-1.38-.21-2.09-.24-.96.05-2.7.2-4.2,1.05-1.5.8-2.62,1.94-3.32,2.62.24-.37-.89.72-1.89,1.52l.43-.28c-.94.81-1.95,1.5-3.09,1.85-1.16.36-2.47.44-3.82.49-2.71.1-5.36.2-7.66.28-.64.02-1.12,0-1.42-.02l-4.41.22c.34-.14-3.66.01-1.56-.13-3.3.26-6.65.28-9.8.54-3.97.11-8.01.43-11.99,0-3.97-.43-7.9-1.67-11.44-3.64l-.18,1.2,3.47-.81,1.59-.37-1.43-.75c-2.02-1.06-4-2.15-5.75-3.5l.19.21c-1.6-1.19-2.97-2.51-3.94-4.24-.97-1.73-1.3-3.9-.96-6.33.13-1.75.67-3.84,1.1-5.66.44-1.83.75-3.41.72-4.12.34-1.98.3-3.4.03-4.73-.12-.67-.33-1.31-.6-2.05-.25-.74-.57-1.56-.69-2.66.01.58-.26-.48-.01-1.52.05-.25.15-.49.23-.69.07-.16.12-.29.15-.37.06-.16.01-.11-.23.32-.4.74-.48,1.4-.49,1.9,0,.51.05.89.12,1.24.14.7.34,1.32.61,2.39l.02-.08c.75,2.36.52,4.79-.12,7.28-.6,2.48-1.55,4.97-2.05,7.71-.55,2.68-.42,5.89,1.09,8.49,1.46,2.62,3.76,4.45,6.06,5.95,1.18.73,2.41,1.4,3.63,2.06l.32-2.29c-1.15.26-2.31.51-3.47.77l-3.07.69,2.73,1.57c4.35,2.5,9.44,3.98,14.42,4.18,4.11.16,8.22-.17,12.23-.3,4-.18,7.85-.36,11.27-.52,1.63-.09,2.81-.02,4.2-.01,1.57-.06,3.25-.13,4.99-.2,1.74-.1,3.53-.02,5.55-.4.99-.19,2.03-.59,2.91-1.14.89-.54,1.64-1.19,2.34-1.83,1.39-1.28,2.62-2.54,3.99-3.22-.1.05-.2.1-.27.13,1.41-.79,2.9-.81,4.42-.63,1.51.19,3.1.59,4.9.94-.01-.04.55.07.82.11.3.11,5.61,1.27,11.17,1.81,2.75.26,5.66.38,7.93-.2,2.28-.56,3.66-1.65,3.94-1.82.33-.24.65-.52.97-.82,3.1-2.79,4.74-7,4.83-11.01.15-4.03-.89-7.78-2.07-10.95-.58-1.36-1.28-2.85-1.83-3.94-.39-1.12-.61-1.27-1.13-2.58-1.06-3.43-1.77-5.34-1.31-3.58-.26-.68-.49-1.37-.7-2.06-.21-.68-.38-1.38-.62-2.13-.24-.73-.59-1.53-1.12-2.18-.52-.64-1.12-1.13-1.69-1.53-1.08-.72-2.09-1.31-3.14-1.97-.89-.55-1.35-.91-1.75-1.26-2.28-1.42-1.54-1.06-3.93-2.62-.26-.21-1.87-1.25-3.84-1.63-1.92-.37-3.73-.25-4.12-.31h.46c-3.25-.14-5.4-.46-8.61-.48-4.44-.05-9.19.24-13.72,1.31-2.23.51-4.34,1.06-6.35,1.08-1.98.03-3.93-.53-5.82-1.17-.11.1,1.68.51,1.72.68-2.21-.65-4.48-1.63-6.91-2.29-2.41-.66-4.88-1.11-7.37-1.33-.88-.09-1.97-.21-2.41-.25-1.6-.05-.95.06-2.12.04l-.16-.1c-.86.09-1.48.09-2.1.09-.62.02-1.22.05-2.02.15-.08.05-.67.12-1.23.22-.05-.11-1.75.29-1.68.18h-.01c-.34.08-.58.14-1,.22-.16.05-.65.18-1.31.37-.65.22-1.46.49-2.27.76-.79.32-1.58.63-2.22.89-.61.29-1.07.5-1.23.58l-.3.1c-.86.33-1.16.62-.67.4l-1.03.47.11-.06-1.02.47c-.19.08-.42.15-.16-.05-.54.34-1.17.7-1.74.98,1.59-.79,3.61-1.69,5.38-2.21-.34.16-.84.35-1.34.54-.49.22-.99.44-1.36.62-.47.16-1.15.46-1.89.83-.75.34-1.54.78-2.22,1.18-.29.19-.43.41-1.12.8-.37.14-.74.5-1.31.85.58-.5,1.21-.91,1.86-1.3-.18-.05-1.6.97-2.1,1.33-.21.19-1.41,1.12-2.06,1.85.22-.38-.6.52-1,.95-.43.52-.62.92-.44.71-.02.12.38-.42.76-.84.38-.43.73-.75.46-.38-.21.13-1.02,1.14-1.38,1.75.05.04.29-.38.1.04-.43.65-.72,1.44-.92,1.84.04-.14.16-.45.27-.65-.21.47.22-.87.96-2.01.73-1.14,1.62-2.08,1.16-1.61.14-.1-.83.97-1.53,2.21-.72,1.24-1.05,2.6-.94,2.27.25-.57-.05.45.2-.14.06-.23.12-.46.2-.69.4-.79.7-1.02.57-.74-.34.64,0-.34.57-1.24.56-.9,1.27-1.72.86-1.25.12-.12.24-.23.37-.34-.35.38-1.24,1.46-1.58,1.89.05.04-.35.63-.59,1.18l-.11.18c-.25.57-.55,1.38-.34,1.03.32-.84.52-1.08.57-1.06.05.02,0,.32-.06.62-.06.62-.15,1.18.52-.3-.68,1.2-.02-.54.88-1.68.12-.08.55-.56,1.3-1.26.62-.62.34-.39.44-.54.38-.32,1.12-.88,1.07-.75.49-.49.9-.62,1.55-1.11.58-.43-.06,0,.34-.32.93-.56,2.21-1.36,3-1.73.33-.1,1.27-.47.67-.03-1.44.76.47-.44-1.02.38.36-.11.03.08-.41.32-.43.27-.97.6-1.07.73.49-.23,1.43-.79,2.23-1.22l-.17.07c.69-.43,2.14-1.13,2.96-1.42-.16.14.2.01-.33.27.33-.16.67-.31,1.02-.43.12-.07.25-.14-.05-.03.47-.23.96-.4,1.35-.52.14-.05,1.43-.53,2.78-1.04.68-.22,1.36-.44,1.86-.6.5-.14.82-.22.78-.2.78-.17.99-.14,1.74-.34.02-.02-.44.08-1.12.24-.68.16-1.58.38-2.43.66-.86.25-1.67.54-2.2.75-.54.2-.8.3-.55.21.17-.04.78-.26,1.61-.56.85-.25,1.91-.63,3-.88,2.16-.59,4.38-.89,4.63-.86.59-.07,1.3-.16,1.16-.2,1-.06-.29.13.42.13.02,0-.06-.03.17-.04l.69.04c1.55-.22,3.82-.05,5.45-.06-.48.04-1.02.1-2.06.12l-.18-.03c-.15.02-1.01.04-.98.09,1,.02,1.81.04,2.87.06.19.03.41.06.56.08,0,0-.02-.01-.01-.02.34.05.3.07.17.07-.02,0-.04,0-.07,0,.3.11,1.26.19,2.38.28,1.1.15,2.37.29,3.23.56.52.09.05-.02.71.1,1.77.51,2.96.93,4.78,1.61.61.13.67.12-.02-.19l1.39.5c-.67-.12-.03.14.61.39.64.25,1.28.46.52.35.41.17,1.29.42,2.15.54.1-.04.24-.06,1.32.06,1.52.15,1.16.11,2.42.11.3.04-.16.1-.1.15,1.92-.28,1.7-.06,3.46-.41,1.09-.26,3.16-.75,3.18-.86,1.41-.27,1.42-.19,1.3-.08Z"/>
    </g>
  </g>
</svg>