<?xml version="1.0" encoding="utf-8"?>
<!-- Generator: Adobe Illustrator 24.1.2, SVG Export Plug-In . SVG Version: 6.00 Build 0)  -->
<svg version="1.1" id="Layer_1" xmlns="http://www.w3.org/2000/svg" xmlns:xlink="http://www.w3.org/1999/xlink" x="0px" y="0px"
	 viewBox="0 0 64 64" style="enable-background:new 0 0 64 64;" xml:space="preserve">
<g>
	<path d="M19.9,18.2c0.3-0.3,0.3-0.8,0.3-1.2c0-1.6,0.3-3.1,0.6-4.6c0.3-1.6,0.3-3.3,0.6-4.9c0.2-1.4,0.3-2.8,0.9-4.1
		c0.2-0.5,0.6-1,0.9-1.4c0.6-0.7,1.7-0.4,2,0.4c0.4,1.2,0.9,2.5,0.9,3.8c0,1.3,0.3,2.5,0.3,3.8c0,1.1,0.1,2.3,0,3.4
		c0,0.7,0.1,0.8,0.7,0.4c1.8-1,3.7-1.9,5.4-3.1c0.3-0.2,0.5-0.3,0.6-0.7c0.1-0.4,0.4-0.3,0.7-0.2c0.4,0.3,0.7,0.1,0.9-0.3
		c-0.1-0.1-0.2-0.1-0.3,0c-0.1,0.1-0.3,0.1-0.3-0.1c0-0.1,0.1-0.2,0.2-0.3C34.6,9,34.8,8.9,35,8.8c0.4-0.1,0.8-0.1,1,0.2
		c0.2,0.4,0,0.6-0.2,0.9c-0.3,0.3-0.4,0.5,0.1,0.7c0.4,0.2,0.3,0.5,0.1,0.8c-0.2,0.2-0.3,0.5,0.1,0.7c0.2,0.1,0.3,0.4,0.2,0.7
		c0,0.2-0.1,0.3,0,0.5c0.2,0.6,0.1,0.9-0.5,1c-1.9,0.3-3.6,0.9-5.2,2c-1.2,0.8-2.4,1.6-3.6,2.4c-0.4,0.3-0.5,0.6-0.6,1.1
		c-0.2,2.3-0.4,4.6-0.5,7c0,0.8,0.1,0.8,0.7,0.4c0.1-0.1,0.3-0.1,0.4-0.2c1.5-0.7,2.5-0.3,3.1,1.2c1.1,3,2.1,6.1,3,9.2
		c0.2,0.5,0.2,1.2,0.5,1.5c0.3,0.3,1-0.1,1.5-0.1c0.7,0,1.4,0,2.1,0.1c1,0.1,1.7,0.9,2.4,1.5c1.3,1.3,1.3,4.2,1.2,5.4
		c0,0.3-0.1,0.7-0.2,1c-0.7,1.8-1.4,2.9-2.1,4.4c-1.2,2.5-2.5,4.9-3.5,7.5c-0.5,1.3-1.5,3.7-1.6,3.7c-0.9,0.2-3,0.9-3.9,1.2
		c-2,0.6-4.1,0.7-6.2,0.5c-2.6-0.3-4.3-1.7-6-3.5c-1.8-2-3.2-4.2-4.5-6.5c-1.1-2-1.9-4.1-2.5-6.2c-0.3-1-0.6-2-1-3
		c-0.8-1.7-0.4-3.4,0.2-5c0.4-1.3,1.4-2.3,2.1-3.5c0.6-1.1,1.1-2.2,1.6-3.4c1-2.8,0.6-5.6,1-8.4c0.5-3.4,0.6-6.9,1.5-10.3
		c0.3-1,0.4-2,0.7-2.9c0.1-0.1,1.4-2.2,2.1-3c0.2-0.3,0.4-0.6,0.8-0.5c0.5,0.1,0.9,0.2,1,0.8c0.3,1.4,0.4,2.9,0,4.3
		c-0.1,0.3-0.2,0.6-0.1,0.9C20.2,15.1,19.7,16.6,19.9,18.2L19.9,18.2z M13.1,35.4c-0.3,0-0.5,0.2-0.6,0.3c-0.7,1.2-1.7,2.1-2.2,3.4
		c-0.7,1.5-0.9,3-0.3,4.7c0.5,1.5,1,3,1.6,4.5c0.5,1.3,0.9,2.6,1.5,3.7c1.4,2.7,3.1,5.2,5,7.6c2.9,3.4,7.4,4.2,11.1,3.1
		c0.9-0.3,1.7-0.6,2.7-0.7c0.7-0.1,1-0.4,1.2-1c1.2-3.9,3-7.4,4.8-11c0.8-1.5,1.5-3.1,1.9-4.8c0.7-3.1-2.1-6.3-5.6-5.4
		c-0.2,0.1-0.4,0.1-0.6,0.3c-0.7,0.6-0.9,0.5-1.2-0.4c-0.4-1.8-0.9-3.6-1.5-5.4c-0.3-1-0.7-2-1-3c-0.3-1.1-0.6-2.2-1.1-3.2
		c-0.2-0.4-0.5-0.6-0.8-0.6c-0.8,0-1.5,0.4-2.1,1c-0.4,0.3-0.1,0.8-0.1,1.2c0,0.2,0,0.4,0,0.5c-0.1,3.6-0.4,7.3-0.1,10.9
		c0,0.6,0,1.2-0.6,1.2c-0.6,0-0.6-0.7-0.6-1.1c0-2.8,0.1-5.5,0.2-8.3c0.2-4.1,0.2-8.3,0.6-12.4c0-0.2,0.1-0.5-0.1-0.6
		c-0.2-0.1-0.5,0-0.7,0.1c-1.1,0.5-2,1.2-3,1.7c-0.3,0.1-0.3,0.4-0.4,0.7c-0.4,2.1-0.4,4.3-0.6,6.4c-0.2,1.4-0.3,2.7-0.4,4.1
		c-0.1,1.7-0.6,3.3-1,5c-0.3,1.2-0.6,2.3-0.7,3.5c0,0.4-0.2,0.8-0.6,0.7c-0.4,0-0.3-0.5-0.3-0.7c0.1-1.3,0.3-2.6,0.2-3.9
		c-0.1-3.4,0.4-6.7,0.5-10c0.1-1.7,0.4-3.4,0.2-5.1c-0.1-0.6,0-1.3,0.1-1.9c0.4-2,0.5-4.1,0.6-6.1c0-0.2,0-0.3-0.2-0.4
		c-0.2-0.1-0.3,0.1-0.4,0.2c-0.5,0.4-1,0.8-1.7,0.7c-0.5-0.1-0.7,0.2-0.9,0.6c-0.1,0.2-0.2,0.5-0.2,0.7c-0.2,1.2-0.4,2.4-0.4,3.6
		c0,1.2-0.2,2.4-0.3,3.5c-0.3,2-0.1,4-0.4,6c-0.4,2.2-0.4,4.5-0.7,6.8c-0.3,2.1-0.3,4.2-0.4,6.2c0,0.6-0.2,1.2-0.1,1.7
		c0,0.4-0.3,0.5-0.6,0.5c-0.3,0-0.2-0.3-0.1-0.6c0.1-0.2,0.1-0.4,0.1-0.7C13.3,40.6,12.8,38,13.1,35.4L13.1,35.4z M25.2,8.1
		c-0.4,0.5-0.9,0.9-1.5,1c-0.8,0.1-1.1-0.5-1.6-0.9C22,8.3,22,8.4,22,8.4c-0.1,2.7-0.9,5.3-0.8,8c0,0.2-0.2,0.5,0,0.6
		c0.2,0.1,0.4-0.1,0.6-0.2c1-0.6,2-1.3,3-1.9c0.4-0.2,0.5-0.5,0.5-0.9c0.1-1.7,0-3.4,0-5C25.4,8.7,25.4,8.4,25.2,8.1L25.2,8.1z
		 M19.1,9.1c-0.2-0.3-0.3-0.4-0.6-0.1c-0.3,0.3-1.5,2.7-1.6,3.6c-0.1,0.3-0.1,0.6,0.1,0.8c0.3,0.2,0.6,0.2,1,0
		c0.6-0.3,1.5-1.4,1.5-2.3C19.4,10.7,19.3,9.5,19.1,9.1L19.1,9.1z M18.6,34.3c0,0.3,0,0.6-0.1,0.9c0,0.1-0.5,2.9-0.3,2.9
		c0.2,0,0.6-2.7,0.7-2.9c0.2-1.7,0.5-3.4,0.6-5.1c0.2-2.1,0.2-4.2,0.4-6.3c0-0.3,0.2-0.9-0.1-0.9c-0.5,0-0.3,0.6-0.4,0.9
		c-0.2,2.1-0.4,4.1-0.5,6.2C18.9,31.5,18.6,32.8,18.6,34.3L18.6,34.3z M24.8,5.9c0-1-0.3-1.7-1.1-2.3c-0.2-0.1-0.4-0.2-0.5-0.1
		c-0.3,0.3-0.5,0.8-0.5,1.2c0,0.3,0.4,2.6,0.7,3.2c0.2,0.3,0.5,0.4,0.8,0.3C24.5,8,24.9,6.2,24.8,5.9L24.8,5.9z"/>
	<path d="M40.5,7.2c-0.6,0.7-1.2,1.2-1.3,2.1c0,0.2-0.1,0.4-0.3,0.6c-0.2,0.1-0.3,0.2-0.5,0c-0.1-0.1-0.2-0.3,0-0.4
		c0.8-1,1.1-2.3,2-3.2c0.4-0.4,0.8-0.6,1.2-0.1c0.3,0.3,0.4,0.1,0.6-0.1c0.8-0.8,1.4-1.8,2.3-2.5C45.3,3.1,45.4,3,46,3.8
		c0.2,0.2,0.4,0.2,0.6,0c1-1,1.9-2,3-2.9c0.4-0.3,0.8-0.6,1.2-0.8c0.6-0.2,0.8,0,0.8,0.6c0,0.2-0.1,0.4-0.2,0.6
		c0,0.1-0.1,0.3-0.3,0.3c-0.2,0-0.2-0.2-0.3-0.3c-0.1-0.6-0.3-0.5-0.7-0.2c-1.3,1.1-2.5,2.4-3.4,3.9c-0.1,0.2-0.2,0.3-0.3,0.4
		c-0.2,0.3-0.6,0.4-1,0.3c-0.3,0-0.3-0.4-0.4-0.6c-0.1-0.2,0-0.5-0.3-0.6c-0.3-0.1-0.4,0.2-0.5,0.4c-0.7,0.9-1.5,1.7-2.1,2.7
		C42,8,41.7,8.2,41.2,8.2C40.6,8.3,40.7,7.7,40.5,7.2L40.5,7.2z"/>
	<path d="M54.2,1c0.4,0.1,0.9,0.1,0.9,0.6c0.1,0.4-0.4,0.5-0.7,0.6c-1.1,0.4-2.1,1-2.8,1.9c-0.3,0.4-0.6,0.5-1,0.2
		c-0.4-0.3-0.1-0.6,0.1-0.9c0.8-1,2-1.6,3-2.3C53.9,1.1,54.1,1,54.2,1L54.2,1z"/>
	<path d="M36.7,41.4c0.3,0,0.6,0.1,0.9,0.2c0.4,0.2,0.4,0.5,0.3,0.8c-0.1,0.4-0.6,0.6-0.8,0.4c-0.8-0.7-1.6-0.1-2.3,0.1
		c-0.1,0-0.2,0.1-0.3,0.2c-0.3,0.1-0.6,0.6-0.9,0.2c-0.3-0.4,0.1-0.7,0.3-1C34.7,41.6,35.7,41.5,36.7,41.4L36.7,41.4z"/>
	<path d="M22.7,44.2c-0.1,0.3-0.1,0.7-0.5,0.8c-0.4,0.1-0.5-0.2-0.6-0.5c-0.2-0.4-0.9-0.3-1.3,0c-0.1,0.1-0.2,0.3-0.4,0.4
		c-0.2,0.2-0.4,0.4-0.7,0.2c-0.2-0.2-0.1-0.5,0-0.7c0.4-0.9,1.8-1.6,2.8-1.3C22.4,43.2,22.7,43.5,22.7,44.2L22.7,44.2z"/>
	<path d="M28.8,43c-0.4,0-0.8,0-1,0.4c-0.2,0.3-0.4,0.4-0.7,0.3c-0.3-0.1-0.2-0.5-0.2-0.7c0.2-0.9,2-1.7,2.8-1.2
		c0.3,0.2,0.3,0.4,0.3,0.7c0,0.3-0.2,0.4-0.5,0.5C29.3,43,29.1,43.1,28.8,43L28.8,43z"/>
	<path d="M16.6,44.3c0.5,0,1.1,0.4,1.1,0.9c0,0.3,0,0.5-0.3,0.7c-0.3,0.1-0.6,0.2-0.8-0.2c-0.2-0.5-0.6-0.5-1-0.3
		c-0.4,0.2-1,0.1-1.2,0.8c-0.1,0.2-0.3,0.1-0.4,0c-0.2-0.1-0.1-0.3,0-0.4C14.3,45.1,15.8,44.3,16.6,44.3L16.6,44.3z"/>
</g>
</svg>
