<?xml version="1.0" encoding="UTF-8"?>
<svg id="Layer_2" data-name="Layer 2" xmlns="http://www.w3.org/2000/svg" viewBox="0 0 206.81 76.36">
  <defs>
    <style>
      .cls-1 {
        fill: #000;
        font-family: BethEllen2Regular, 'Beth Ellen 2';
        font-size: 25.88px;
      }

      .cls-2 {
        fill: #202020;
        stroke-width: 0px;
      }
    </style>
  </defs>
  <g id="Layer_1-2" data-name="Layer 1">
    <g>
      <text class="cls-1" transform="translate(13.19 48.96)"><tspan x="0" y="0">Next project</tspan></text>
      <path class="cls-2" d="M107.11,3.44c.68,0,1.35-.05,2.03,0-6.55-.09-13.49.95-20.33,2.16,3.74-.54,7.64-1.11,11.55-1.42,3.91-.3,7.82-.42,11.59-.17.94.07,1.86.2,2.78.29.92.08,1.82.21,2.72.37,1.8.31,3.57.68,5.31,1.03,3.47.72,6.86,1.33,9.87,1.44.59.47,4.63,1.18,8.57,1.54,3.94.33,7.73.38,7.88.3,3.07-.1,6.17-.19,9.31-.29-2.15.06-4.3.11-6.43.16,2.13-.05,4.27-.11,6.43-.16,4.93-.11,9.94-.11,14.96.39,5.02.49,10.06,1.52,14.83,3.44,2.38.96,4.71,2.15,6.99,3.47,1.14.66,2.27,1.36,3.39,2.08,1.11.73,2.32,1.47,3.11,2.19.82.73,1.18,1.45,1.41,2.59.22,1.08.21,2.44.23,3.78,0,2.67-.2,5.38-.45,8.13-.25,3.05-.82,7.44-.92,12.68-.04,2.61.12,5.49.58,8.34.21,1.38.43,2.72.48,3.98.06,1.26-.06,2.44-.46,3.26-.2.41-.43.76-.77,1.04-.31.28-.7.5-1.21.69-.98.38-2.38.59-3.77.86-2.74.51-5.4.98-7.89,1.36-4.98.76-9.32,1.06-12.36,1.01-1.77,0-3.5-.13-5.25-.3,1.45.16,2.18.22,2.91.25.73.06,1.47.07,2.94.1-3.71.11-7.24-.06-10.55-.74-1.65-.3-3.26-.81-5.11-1.2-1.8-.38-3.93-.58-5.95-.01.71-.13,1.15-.15,1.81-.15.66.01,1.58.03,3.1.36-1.23-.24-2.58-.35-3.95-.16-.93.21-2.07.62-3.2,1.19-1.14.56-2.25,1.26-3.39,1.79-.57.28-1.15.56-1.71.83-.58.23-1.15.46-1.69.68-1.08.47-2.11.73-2.89,1.02.65-.33-1.86.39-4.14.77l.92-.07c-4.3.83-9.07,1.19-13.75,1.1-4.68-.09-9.25-.51-13.22-1-1.11-.13-1.93-.29-2.43-.4l-7.65-.91c.61-.11-6.32-1.01-2.66-.64-5.75-.55-11.54-1.46-17.03-1.97-2.44-.32-4.9-.64-7.38-.97-2.49-.31-5.06-.57-7.68-.51-2.62.05-5.19.41-7.71.8-2.53.4-5.02.8-7.54,1.13-10.09,1.31-20.37,1.79-30.49,1.42l.49.1c-3.54-.13-6.89-.16-10.25-1.08-1.66-.48-3.32-1.2-4.78-2.38-1.46-1.16-2.64-2.82-3.48-4.77-1.38-2.73-2.12-6.44-2.68-9.66-.56-3.23-.84-6.05-1.07-7.27-.16-3.58-.12-6.1-.01-8.59.13-2.49.31-4.98.9-8.46-.26.88-.02-.82.26-2.31.27-1.5.53-2.74.06-1.09-.64,2.27-.88,3.5-1.07,4.64-.19,1.14-.36,2.17-.69,4.17l.08-.11C.04,38.17-.15,42.88.12,47.56c.13,2.34.37,4.68.72,7.01.34,2.32.78,4.69,1.6,7.04.82,2.33,2.08,4.7,4.06,6.53,1.96,1.84,4.42,2.97,6.83,3.62,2.43.66,4.86.92,7.22,1.1,2.35.16,4.69.28,7.05.35,6.28.07,12.83-.11,19.41-.67,3.29-.28,6.59-.64,9.87-1.1,3.29-.45,6.48-1.05,9.57-1.3,3.3-.31,6.66,0,10.17.44,3.52.45,7.05.89,10.52,1.33,6.94.86,13.64,1.68,19.56,2.41,2.83.32,4.86.75,7.28,1.12,5.49.59,11.81,1.15,18.37.81,6.54-.34,13.37-1.74,19.13-4.7-.22.1-.43.2-.58.26,1.58-.71,2.9-1.53,4.13-2.02,1.25-.52,2.32-.7,3.54-.61,1.21.08,2.49.43,3.88.83,1.38.41,2.95.82,4.59,1.12-.02-.06,1,.12,1.5.18.27.08,2.85.54,6.6.58,1.87,0,4.02-.06,6.3-.27,2.28-.21,4.69-.54,7.08-.93,2.4-.39,4.77-.87,7.02-1.32,1.12-.23,2.21-.46,3.25-.67,1.05-.22,2.12-.46,3.13-.89,1.01-.41,1.93-1.08,2.57-1.82.65-.75,1.02-1.56,1.26-2.24.44-1.38.45-2.3.49-2.61.03-.74,0-1.48-.08-2.22-.12-1.78-.47-3.49-.65-5.12-.21-1.63-.27-3.29-.28-4.95,0-3.32.32-6.65.68-9.95.35-3.3.71-6.58.85-9.81.06-1.62.07-3.21,0-4.81-.1-1.61-.35-3.49-1.49-5.13-1.03-1.37-2.39-2.19-3.51-2.86-1.13-.67-2.23-1.29-3.18-1.79-1.74-1.16-2.19-1.2-4.41-2.41-2.73-1.71-5.12-2.76-6.41-3.15-1.28-.43-1.41-.37.14.26-5.04-1.78-10.3-2.76-14.95-3.2-2.16-.2-4.31-.27-6.48-.33-1.84,0-2.87-.13-3.79-.26-4.71.02-3.32-.08-8.23-.14-.59-.09-3.67,0-6.75.04-3.08.06-6.18,0-6.86-.07.26.01.53.02.79.02-5.62-.34-9.21-1.14-14.51-2.37-3.7-.87-7.57-1.98-11.67-2.46-4.08-.59-8.21-.5-12.25-.24-8.08.6-15.74,2.35-22.73,3.6-.11.22,3.08-.63,3.29-.42-8.25,1.56-16.59,2.87-24.82,2.57-1.48-.09-3.26-.39-3.93-.48-2.58-.4-1.54-.09-3.44-.43l-.23-.21c-2.82-.37-4.04-.99-6.73-1.49-.16.04-1.14-.17-2.1-.37,0-.19-2.98-.59-2.82-.71h-.03c-.59-.1-1.01-.18-1.74-.32-.57-.06-3.55-.43-6.62-.36-3.07,0-6.14.7-6.71.87-.19.03-.38.04-.56.08-1.63.45-2.27.77-1.32.54-.67.17-1.32.4-1.96.65l.22-.1c-.64.24-1.27.5-1.88.79-.34.15-.77.26-.28-.06-1.02.56-2.12,1.23-3.1,1.81,1.36-.81,2.97-1.61,4.68-2.24.86-.31,1.74-.58,2.62-.76.44-.09.87-.19,1.3-.28.43-.06.85-.11,1.27-.16-.33.08-.74.16-1.17.24-.44.09-.9.23-1.37.35-.95.22-1.89.57-2.57.85-.84.28-2.09.81-3.39,1.51-1.31.69-2.65,1.56-3.79,2.36-.48.38-.7.78-1.81,1.58-.6.32-1.19.99-2.1,1.66.93-.91,1.93-1.71,2.98-2.53-.3,0-2.58,1.96-3.38,2.62-.34.36-2.25,2.01-3.37,3.15.4-.59-1,.81-1.73,1.42-.78.74-1.21,1.28-.87,1.01-.14.35,3.12-2.93,2.17-1.75-.34.21-1.82,1.71-2.6,2.52.06.07.59-.5.14.08-.89.89-1.72,1.93-2.28,2.4.14-.19.51-.56.76-.83-.56.59.83-1.14,2.26-2.76,1.42-1.63,2.88-3.17,2.12-2.42.23-.16-1.38,1.54-2.87,3.26-1.5,1.71-2.88,3.41-2.52,3.01.71-.7-.36.64.36-.1l.7-.91c.99-1,1.52-1.3,1.22-.9-.82.85.21-.48,1.33-1.8,1.11-1.32,2.31-2.63,1.61-1.9l.63-.54c-.59.63-2.19,2.27-2.87,2.83.06.07-.73.91-1.36,1.63l-.24.24c-.65.75-1.6,1.75-1.07,1.36,3.94-4.23-1.91,3.4,1.94-.64-1.75,1.57.37-.73,2.1-2.48.22-.12,1.06-.82,2.37-1.99,1.1-1.06.6-.67.78-.91.65-.55,1.88-1.6,1.79-1.37.8-.88,1.48-1.2,2.54-2.15.94-.84-.1,0,.55-.6,1.47-1.2,3.66-2.71,4.98-3.44.55-.22,2.2-.88,1.14-.14-2.48,1.38.81-.78-1.73.75.61-.23.05.11-.68.6-.73.49-1.63,1.14-1.79,1.38.81-.49,2.37-1.58,3.75-2.37l-.29.13c1.18-.75,3.72-2,5.23-2.24-.32.18.33.04-.64.36.6-.2,1.23-.33,1.84-.5.23-.09.46-.18-.07-.05.86-.28,1.77-.38,2.46-.45.05.02.71-.06,1.67-.19.96-.07,2.22-.16,3.47-.14,2.5.02,4.95.31,4.79.32,1.38.22,1.69.39,3.05.57.02,0-.17-.04-.52-.1-.35-.06-.85-.15-1.45-.23-1.2-.17-2.81-.38-4.37-.46-3.12-.21-5.99.18-5.07.08.15,0,.5-.02,1.01-.04.51-.02,1.18-.07,1.95-.04,1.54-.02,3.5.15,5.44.38,3.88.51,7.7,1.32,8.11,1.47,1.02.22,2.24.46,2.02.32,1.71.4-.55.05.66.39.03,0-.09-.06.3.02l1.16.34c1.35.19,3.01.52,4.7.74,1.69.22,3.41.32,4.84.34-.83.06-1.78.12-3.64.06l-.32-.07c-.27,0-1.78-.18-1.75-.09,1.73.34,3.25.38,5.11.46.34.06.74.08,1.01.11,0-.01-.04-.02-.03-.03.6.06.54.07.32.1-.03,0-.06.01-.13.02.27.07.85.09,1.6.1.75.01,1.69,0,2.68-.09.99-.08,2.06-.14,3.06-.24,1.01-.11,1.96-.21,2.77-.25.94-.13.09-.03,1.25-.23,3.26-.32,5.5-.6,8.87-1.15,1.05-.3,1.13-.36-.19-.23l2.54-.43c-2.24.72,4.77-.63,2.29.13.75-.08,2.27-.35,3.67-.67.13-.1.33-.26,2.1-.59,2.49-.34,1.89-.28,3.95-.54.5.02-.24.17-.15.23,3.13-.6,2.78-.27,5.74-.64.46-.06,1.04-.14,1.65-.23.61-.06,1.24-.12,1.82-.18,1.16-.12,2.1-.25,2.14-.32,2.51-.06,2.51.06,2.26.2Z"/>
    </g>
  </g>
</svg>